<svg width="24" height="24" viewBox="0 0 24 24" fill="none" xmlns="http://www.w3.org/2000/svg">
<path fill-rule="evenodd" clip-rule="evenodd" d="M13.2717 0.309311C12.5448 -0.0997524 11.6559 -0.103291 10.9258 0.299973L2.23118 5.10226C1.47122 5.52201 1 6.31771 1 7.18122V16.8188C1 17.6823 1.47122 18.478 2.23118 18.8977L10.9258 23.7C11.6559 24.1033 12.5448 24.0998 13.2717 23.6907L21.7856 18.8991C22.5361 18.4766 23 17.6861 23 16.8295V7.17055C23 6.31387 22.5361 5.52335 21.7856 5.10093L13.2717 0.309311ZM12.9891 2.64745C12.4238 2.3202 11.7324 2.31737 11.1645 2.63998L4.40203 6.48181C3.81095 6.81761 3.44444 7.45417 3.44444 8.14497V15.855C3.44444 16.5458 3.81095 17.1824 4.40203 17.5182L11.1645 21.36C11.7324 21.6826 12.4238 21.6798 12.9891 21.3526L19.611 17.5193C20.1948 17.1813 20.5556 16.5489 20.5556 15.8636V8.13644C20.5556 7.45109 20.1948 6.81868 19.611 6.48074L12.9891 2.64745Z" fill="#17B5CB"/>
<path d="M16.7886 7.20001H18.0685L12.8723 12.7959C12.7378 12.9347 12.7339 13.156 12.8646 13.2985L15.8624 16.584H14.5249L11.7539 13.5385L11.6155 13.3735C11.4848 13.231 11.4887 13.0097 11.6232 12.8709L16.7886 7.20001Z" fill="#17B5CB"/>
<path d="M13.9023 13.3022C13.8177 13.2084 13.787 13.0809 13.8177 12.9647C13.8408 12.9009 13.8908 12.8296 13.9369 12.7809L14.2828 12.4208L18.0992 16.584H16.8847C16.8847 16.584 14.6479 14.1236 13.9023 13.3022Z" fill="#17B5CB"/>
<path d="M7.22256 16.584H5.88892L9.97823 12.1208C10.1089 11.9783 10.1089 11.7645 9.97823 11.6257L5.91966 7.20001H7.20334L11.285 11.6632C11.3887 11.7945 11.408 11.9858 11.2965 12.1095C10.2281 13.276 7.22256 16.584 7.22256 16.584Z" fill="#17B5CB"/>
<path d="M9.45938 7.20001H8.22567L12.0075 11.3294C12.0075 11.3294 12.019 11.3219 12.4418 10.8531C12.5571 10.7256 12.5802 10.568 12.4533 10.448C11.6578 9.67915 9.45938 7.20001 9.45938 7.20001Z" fill="#17B5CB"/>
<path d="M13.1413 10.0805L15.7663 7.20001H14.5249L12.757 9.14282C12.6225 9.28159 12.6186 9.49912 12.7493 9.6454C12.8492 9.75417 13.1413 10.0805 13.1413 10.0805Z" fill="#17B5CB"/>
<path d="M10.8622 13.7036L8.2372 16.584H9.4786L11.2465 14.6412C11.3811 14.5024 11.3849 14.2849 11.2542 14.1386C11.1543 14.0299 10.8622 13.7036 10.8622 13.7036Z" fill="#17B5CB"/>
</svg>
