<svg width="31" height="31" viewBox="0 0 31 31" fill="none" xmlns="http://www.w3.org/2000/svg">
<g clip-path="url(#clip0_4240_4299)">
<path d="M0.150434 13.3429C1.34181 4.86583 9.17967 -1.04042 17.6568 0.150957C26.1339 1.34234 32.0401 9.18019 30.8487 17.6573C29.6574 26.1344 21.8195 32.0406 13.3424 30.8493C4.8653 29.6579 -1.04095 21.82 0.150434 13.3429Z" fill="url(#paint0_radial_4240_4299)"/>
<path d="M0.150434 13.3429C1.34181 4.86583 9.17967 -1.04042 17.6568 0.150957C26.1339 1.34234 32.0401 9.18019 30.8487 17.6573C29.6574 26.1344 21.8195 32.0406 13.3424 30.8493C4.8653 29.6579 -1.04095 21.82 0.150434 13.3429Z" fill="url(#paint1_radial_4240_4299)"/>
<path d="M16.7703 11.0083L17.3726 10.3052L19.4618 7.86951H21.3517L17.3549 12.5228C17.3549 12.5228 16.9098 11.9958 16.7581 11.8198C16.5588 11.584 16.5655 11.2319 16.7703 11.0083ZM11.7494 7.86951C11.7494 7.86951 15.0963 11.8751 16.3075 13.1174C16.5002 13.3111 16.4658 13.5658 16.2898 13.7717C15.6466 14.529 15.6288 14.5411 15.6288 14.5411L9.8706 7.86951H11.7494ZM14.4708 19.892L13.8685 20.595L11.7793 23.0307H9.88942L13.8862 18.3774C13.8862 18.3774 14.3313 18.9044 14.483 19.0804C14.6822 19.3163 14.6756 19.6683 14.4708 19.892ZM14.5472 15.8022C12.9208 17.6865 8.34495 23.0318 8.34495 23.0318H6.31445L12.541 15.821C12.7403 15.5907 12.7403 15.2453 12.541 15.0216L6.36095 7.86951H8.31506L14.5295 15.0803C14.6878 15.2929 14.7166 15.6018 14.5472 15.8011V15.8022ZM19.4629 23.0318L15.2436 18.1117L15.0332 17.8449C14.8339 17.6146 14.8406 17.257 15.0454 17.0322L22.9094 7.87061H24.858L16.9463 16.9115C16.7415 17.1363 16.736 17.4928 16.9342 17.7231L21.4978 23.0318H19.4618H19.4629ZM23.0556 23.0318C23.0556 23.0318 19.65 19.0561 18.5141 17.7297C18.3856 17.578 18.338 17.3721 18.3856 17.1839C18.4211 17.0809 18.4963 16.9658 18.5672 16.8872L19.0942 16.3059L24.9045 23.0318H23.0556Z" fill="#131313"/>
</g>
<defs>
<radialGradient id="paint0_radial_4240_4299" cx="0" cy="0" r="1" gradientUnits="userSpaceOnUse" gradientTransform="translate(9.31586 7.25002) rotate(52.9817) scale(32.2047 68.2989)">
<stop stop-color="#76ECF8"/>
<stop offset="0.380208" stop-color="#A6AEEC"/>
<stop offset="1" stop-color="#ECBEE1"/>
</radialGradient>
<radialGradient id="paint1_radial_4240_4299" cx="0" cy="0" r="1" gradientUnits="userSpaceOnUse" gradientTransform="translate(14.9415 29.1309) rotate(92.265) scale(16.6806 31.9103)">
<stop stop-color="#FCF5EE"/>
<stop offset="0.715135" stop-color="#ECBEE1" stop-opacity="0"/>
</radialGradient>
<clipPath id="clip0_4240_4299">
<rect width="31" height="31" fill="white"/>
</clipPath>
</defs>
</svg>
